# Blender v2.79 (sub 0) OBJ File: ''
# www.blender.org
mtllib t-51feather4.mtl
o SuitHat:0.001
v -2.664782 3.319820 -10.100225
v -0.558787 3.271639 -10.333149
v -0.449994 4.847842 -9.675549
v 1.776335 6.374841 -9.098110
v -0.337485 6.477920 -8.995472
v 2.044121 5.889158 -8.291016
v 3.808946 6.232591 -8.196550
v 3.280144 5.356089 -8.678073
v 5.061042 5.593312 -8.407926
v 4.532240 4.716810 -8.889448
v 6.324829 4.876789 -8.491532
v 5.796026 4.000287 -8.973055
v 0.815403 6.373948 -7.824102
v 2.572923 6.765659 -7.809493
v 4.355822 7.139050 -7.698569
v 5.607918 6.499772 -7.909945
v 6.871705 5.783247 -7.993552
v 8.153025 4.950858 -7.885506
v 7.606148 4.044398 -8.383488
v 7.077345 3.167897 -8.865009
v 3.119799 7.672118 -7.311512
v 1.344205 7.250449 -7.342579
v 1.891081 8.156910 -6.844599
v -0.558787 3.271639 -10.333149
v 1.663825 4.744764 -9.778187
v 1.555034 3.168561 -10.435787
v 3.794860 4.520915 -9.594194
v 3.686068 2.944711 -10.251795
v 5.938414 4.209231 -9.201743
v 5.829623 2.633027 -9.859344
v -2.664782 3.319820 -10.100225
v -0.449994 4.847842 -9.675549
v 1.776335 6.374841 -9.098110
v 3.907370 6.150992 -8.914117
v 6.050925 5.839308 -8.521667
v 8.213259 5.395874 -7.816527
v 8.100748 3.765796 -8.496604
v 7.991957 2.189592 -9.154206
v -0.337485 6.477920 -8.995472
v -2.555989 4.896023 -9.442624
v -2.443479 6.526101 -8.762547
v 8.153025 4.950858 -7.885506
v 6.324829 4.876789 -8.491532
v 7.606148 4.044398 -8.383488
v 5.796026 4.000287 -8.973055
v 6.871705 5.783247 -7.993552
v 5.061042 5.593312 -8.407926
v 6.324829 4.876789 -8.491532
v 4.532240 4.716810 -8.889448
v 5.607918 6.499772 -7.909945
v 3.808946 6.232591 -8.196550
v 5.061042 5.593312 -8.407926
v 3.280144 5.356089 -8.678073
v 4.355822 7.139050 -7.698569
v 2.572923 6.765659 -7.809493
v 3.808946 6.232591 -8.196550
v 2.044121 5.889158 -8.291016
v 3.119799 7.672118 -7.311512
v 1.344205 7.250449 -7.342579
v 2.572923 6.765659 -7.809493
v 0.815403 6.373948 -7.824102
v 8.213259 5.395874 -7.816527
v 5.938414 4.209231 -9.201743
v 8.100748 3.765796 -8.496604
v 5.829623 2.633027 -9.859344
v 6.050925 5.839308 -8.521667
v 3.794860 4.520915 -9.594194
v 5.938414 4.209231 -9.201743
v 3.686068 2.944711 -10.251795
v 3.907370 6.150992 -8.914117
v 1.663825 4.744764 -9.778187
v 3.794860 4.520915 -9.594194
v 1.555034 3.168561 -10.435787
v 1.776335 6.374841 -9.098110
v -0.449994 4.847842 -9.675549
v 1.663825 4.744764 -9.778187
v -0.558787 3.271639 -10.333149
v -0.337485 6.477920 -8.995472
v -2.555989 4.896023 -9.442624
v -0.449994 4.847842 -9.675549
v -2.664782 3.319820 -10.100225
v -0.337485 6.477920 -8.995472
v -2.443479 6.526101 -8.762547
v -2.555989 4.896023 -9.442624
v -0.558787 3.271639 -10.333149
v 1.555034 3.168561 -10.435787
v 1.663825 4.744764 -9.778187
v 3.907370 6.150992 -8.914117
v 1.776335 6.374841 -9.098110
v 1.555034 3.168561 -10.435787
v 3.686068 2.944711 -10.251795
v 3.794860 4.520915 -9.594194
v 6.050925 5.839308 -8.521667
v 3.907370 6.150992 -8.914117
v 3.686068 2.944711 -10.251795
v 5.829623 2.633027 -9.859344
v 5.938414 4.209231 -9.201743
v 8.213259 5.395874 -7.816527
v 6.050925 5.839308 -8.521667
v 5.829623 2.633027 -9.859344
v 7.991957 2.189592 -9.154206
v 8.100748 3.765796 -8.496604
v 0.815403 6.373948 -7.824102
v 2.044121 5.889158 -8.291016
v 2.572923 6.765659 -7.809493
v 4.355822 7.139050 -7.698569
v 3.119799 7.672118 -7.311512
v 3.119799 7.672118 -7.311512
v 1.891081 8.156910 -6.844599
v 1.344205 7.250449 -7.342579
v 2.044121 5.889158 -8.291016
v 3.280144 5.356089 -8.678073
v 3.808946 6.232591 -8.196550
v 5.607918 6.499772 -7.909945
v 4.355822 7.139050 -7.698569
v 3.280144 5.356089 -8.678073
v 4.532240 4.716810 -8.889448
v 5.061042 5.593312 -8.407926
v 6.871705 5.783247 -7.993552
v 5.607918 6.499772 -7.909945
v 4.532240 4.716810 -8.889448
v 5.796026 4.000287 -8.973055
v 6.324829 4.876789 -8.491532
v 8.153025 4.950858 -7.885506
v 6.871705 5.783247 -7.993552
v 5.796026 4.000287 -8.973055
v 7.077345 3.167897 -8.865009
v 7.606148 4.044398 -8.383488
vt 0.184463 0.076310
vt 0.184463 0.014048
vt 0.211497 0.076310
vt 0.239185 0.076310
vt 0.239185 0.138573
vt 0.096072 0.076310
vt 0.124416 0.138573
vt 0.096072 0.138573
vt 0.124416 0.200836
vt 0.096072 0.200836
vt 0.124416 0.263100
vt 0.096072 0.263100
vt 0.096072 0.014048
vt 0.124416 0.076310
vt 0.152104 0.138573
vt 0.152104 0.200836
vt 0.152104 0.263100
vt 0.152104 0.325362
vt 0.124416 0.325362
vt 0.096072 0.325362
vt 0.152104 0.076310
vt 0.124416 0.014048
vt 0.152104 0.014048
vt 0.184463 0.076310
vt 0.211497 0.138573
vt 0.184463 0.138573
vt 0.211497 0.200836
vt 0.184463 0.200836
vt 0.211497 0.263100
vt 0.184463 0.263100
vt 0.184463 0.014048
vt 0.211497 0.076310
vt 0.239185 0.138573
vt 0.239185 0.200836
vt 0.239185 0.263100
vt 0.239185 0.325362
vt 0.211497 0.325362
vt 0.184463 0.325362
vt 0.239185 0.076310
vt 0.211497 0.014048
vt 0.239185 0.014048
vt 0.152104 0.325362
vt 0.124416 0.325362
vt 0.124416 0.263100
vt 0.096072 0.263100
vt 0.152104 0.263100
vt 0.124416 0.263100
vt 0.124416 0.200836
vt 0.096072 0.200836
vt 0.152104 0.200836
vt 0.124416 0.200836
vt 0.124416 0.138573
vt 0.096072 0.138573
vt 0.152104 0.138573
vt 0.124416 0.138573
vt 0.124416 0.076310
vt 0.096072 0.076310
vt 0.152104 0.076310
vt 0.124416 0.076310
vt 0.124416 0.014048
vt 0.096072 0.014048
vt 0.239185 0.325362
vt 0.211497 0.325362
vt 0.211497 0.263100
vt 0.184463 0.263100
vt 0.239185 0.263100
vt 0.211497 0.263100
vt 0.211497 0.200836
vt 0.184463 0.200836
vt 0.239185 0.200836
vt 0.211497 0.200836
vt 0.211497 0.138573
vt 0.184463 0.138573
vt 0.239185 0.138573
vt 0.211497 0.138573
vt 0.211497 0.076310
vt 0.184463 0.076310
vt 0.239185 0.076310
vt 0.211497 0.076310
vt 0.211497 0.014048
vt 0.184463 0.014048
vt 0.239185 0.014048
vt 0.239185 0.076310
vt 0.211497 0.014048
vt 0.184463 0.138573
vt 0.184463 0.076310
vt 0.211497 0.138573
vt 0.239185 0.138573
vt 0.239185 0.200836
vt 0.184463 0.200836
vt 0.184463 0.138573
vt 0.211497 0.200836
vt 0.239185 0.200836
vt 0.239185 0.263100
vt 0.184463 0.263100
vt 0.184463 0.200836
vt 0.211497 0.263100
vt 0.239185 0.263100
vt 0.239185 0.325362
vt 0.184463 0.325362
vt 0.184463 0.263100
vt 0.211497 0.325362
vt 0.096072 0.076310
vt 0.096072 0.014048
vt 0.124416 0.076310
vt 0.152104 0.076310
vt 0.152104 0.138573
vt 0.152104 0.014048
vt 0.152104 0.076310
vt 0.124416 0.014048
vt 0.096072 0.138573
vt 0.096072 0.076310
vt 0.124416 0.138573
vt 0.152104 0.138573
vt 0.152104 0.200836
vt 0.096072 0.200836
vt 0.096072 0.138573
vt 0.124416 0.200836
vt 0.152104 0.200836
vt 0.152104 0.263100
vt 0.096072 0.263100
vt 0.096072 0.200836
vt 0.124416 0.263100
vt 0.152104 0.263100
vt 0.152104 0.325362
vt 0.096072 0.325362
vt 0.096072 0.263100
vt 0.124416 0.325362
vn 0.0925 -0.3888 0.9167
vn 0.0592 -0.3878 0.9198
vn -0.0465 -0.3819 0.9230
vn -0.0816 0.5172 -0.8519
vn 0.0121 0.4759 -0.8794
vn 0.1208 0.4210 -0.8990
vn 0.2261 0.3607 -0.9049
vn -0.1109 0.5291 -0.8413
vn 0.2860 0.3231 -0.9021
vn -0.0592 0.3878 -0.9198
vn 0.0466 0.3819 -0.9230
vn 0.1689 0.3696 -0.9137
vn 0.2869 0.3519 -0.8910
vn -0.0925 0.3888 -0.9167
vn 0.3538 0.3392 -0.8716
vn -0.2860 -0.3231 0.9021
vn -0.2261 -0.3607 0.9049
vn -0.1208 -0.4210 0.8990
vn -0.0121 -0.4758 0.8794
vn -0.0121 -0.4759 0.8794
vn 0.0816 -0.5172 0.8519
vn 0.1109 -0.5291 0.8413
vn -0.3538 -0.3392 0.8716
vn -0.2869 -0.3519 0.8910
vn -0.1689 -0.3696 0.9137
vn -0.1689 -0.3695 0.9137
vn -0.0466 -0.3819 0.9230
usemtl Material.000001
s 1
f 1/1/1 2/2/2 3/3/2
f 4/4/3 5/5/2 3/3/2
f 6/6/4 7/7/5 8/8/5
f 7/7/5 9/9/6 8/8/5
f 8/8/5 9/9/6 10/10/6
f 9/9/6 11/11/7 10/10/6
f 10/10/6 11/11/7 12/12/7
f 13/13/8 14/14/4 6/6/4
f 6/6/4 14/14/4 7/7/5
f 14/14/4 15/15/5 7/7/5
f 15/15/5 16/16/6 7/7/5
f 7/7/5 16/16/6 9/9/6
f 16/16/6 17/17/7 9/9/6
f 9/9/6 17/17/7 11/11/7
f 17/17/7 18/18/9 11/11/7
f 18/18/9 19/19/9 11/11/7
f 11/11/7 19/19/9 12/12/7
f 19/19/9 20/20/9 12/12/7
f 15/15/5 14/14/4 21/21/4
f 21/21/4 14/14/4 22/22/8
f 14/14/4 13/13/8 22/22/8
f 23/23/8 21/21/4 22/22/8
f 24/24/10 25/25/11 26/26/11
f 25/25/11 27/27/12 26/26/11
f 26/26/11 27/27/12 28/28/12
f 27/27/12 29/29/13 28/28/12
f 28/28/12 29/29/13 30/30/13
f 31/31/14 32/32/10 24/24/10
f 24/24/10 32/32/10 25/25/11
f 32/32/10 33/33/11 25/25/11
f 33/33/11 34/34/12 25/25/11
f 25/25/11 34/34/12 27/27/12
f 34/34/12 35/35/13 27/27/12
f 27/27/12 35/35/13 29/29/13
f 35/35/13 36/36/15 29/29/13
f 36/36/15 37/37/15 29/29/13
f 29/29/13 37/37/15 30/30/13
f 37/37/15 38/38/15 30/30/13
f 33/33/11 32/32/10 39/39/10
f 39/39/10 32/32/10 40/40/14
f 32/32/10 31/31/14 40/40/14
f 41/41/14 39/39/10 40/40/14
f 42/42/16 43/43/17 44/44/16
f 44/44/16 43/43/17 45/45/17
f 46/46/17 47/47/18 48/48/17
f 48/48/17 47/47/18 49/49/18
f 50/50/18 51/51/19 52/52/18
f 52/52/18 51/51/19 53/53/19
f 54/54/20 55/55/21 56/56/20
f 56/56/20 55/55/21 57/57/21
f 58/58/21 59/59/22 60/60/21
f 60/60/21 59/59/22 61/61/22
f 62/62/23 63/63/24 64/64/23
f 64/64/23 63/63/24 65/65/24
f 66/66/24 67/67/25 68/68/24
f 68/68/24 67/67/25 69/69/25
f 70/70/26 71/71/27 72/72/25
f 72/72/25 71/71/27 73/73/27
f 74/74/3 75/75/2 76/76/3
f 76/76/3 75/75/2 77/77/2
f 78/78/2 79/79/1 80/80/2
f 80/80/2 79/79/1 81/81/1
f 82/82/2 83/83/1 84/84/1
f 85/85/2 86/86/3 87/87/3
f 88/88/25 89/89/27 87/87/27
f 90/90/27 91/91/25 92/92/25
f 93/93/24 94/94/25 92/92/25
f 95/95/25 96/96/24 97/97/24
f 98/98/23 99/99/24 97/97/24
f 100/100/24 101/101/23 102/102/23
f 103/103/22 104/104/21 105/105/21
f 106/106/20 107/107/21 105/105/21
f 108/108/21 109/109/22 110/110/22
f 111/111/21 112/112/20 113/113/20
f 114/114/18 115/115/19 113/113/19
f 116/116/19 117/117/18 118/118/18
f 119/119/17 120/120/18 118/118/18
f 121/121/18 122/122/17 123/123/17
f 124/124/16 125/125/17 123/123/17
f 126/126/17 127/127/16 128/128/16
