# Blender v2.79 (sub 0) OBJ File: ''
# www.blender.org
mtllib thigh.mtl
o UpperBody:0.000_UpperBody:0.088
v -10.535021 13.847557 5.586978
v -8.256069 11.891113 7.293118
v -8.179838 16.277435 7.183137
v -10.469588 16.523109 5.328205
v -4.965788 13.361542 -11.648152
v -5.925140 10.630447 -10.608531
v -9.730854 13.508987 -9.007846
v -9.459590 16.987053 -9.630616
v -2.280879 4.870560 -8.731195
v -3.712029 7.516792 -10.127486
v -0.000002 7.550533 -10.650475
v -0.000001 4.453327 -8.732975
v -3.707217 5.519993 6.113956
v 0.000001 5.280243 6.165044
v 0.000001 7.181641 7.870181
v -4.812374 6.711693 6.881009
v -6.139791 9.386322 7.792777
v 0.000001 9.922836 9.057713
v -8.044295 17.081627 -10.598341
v -12.866078 15.035721 -1.695012
v -12.461304 14.863548 2.151502
v -12.414808 16.523109 2.158731
v -12.871064 16.523109 -1.705312
v -10.332042 16.523109 -8.517334
v -5.496264 12.530685 8.602632
v 0.000001 12.745171 9.519285
v -11.191317 14.428406 -5.463733
v -11.996852 14.673134 -5.713563
v -9.216547 13.116302 -8.511546
v -11.828476 14.965973 -1.738073
v -6.090263 10.111847 -10.004059
v -4.324800 7.505569 -9.726685
v -2.442627 4.734474 -8.244975
v -0.000001 4.492096 -8.033987
v -3.581876 5.861084 5.520357
v -4.686765 7.033978 6.099445
v 0.000001 6.565380 4.785541
v -6.016666 9.651306 6.798093
v -10.948929 14.721436 1.791192
v -9.291781 13.592270 4.568208
v -7.685674 11.709778 6.009790
v -11.651044 12.882416 -1.793807
v -10.562477 12.481598 1.706481
v -11.791103 10.803177 -1.890902
v -10.519283 10.534775 1.697919
v -8.761408 11.109703 4.427608
v -8.608106 8.594978 4.445128
v -6.051216 6.741558 6.093292
v -6.030519 8.077667 -9.790249
v -9.216337 11.192245 -8.657105
v -6.021637 5.678844 -9.536947
v -9.189439 9.335571 -8.704906
v -11.303137 10.429207 -5.622127
v -11.181799 12.460190 -5.513423
v -6.047724 3.993103 5.848097
v -3.566386 2.071423 5.403673
v -3.549980 4.808083 5.466350
v -1.212394 1.632912 3.104610
v -1.089887 4.088982 3.406932
v -0.225711 2.915070 -2.086961
v -0.234132 1.137238 -1.751224
v -2.456348 1.663738 -7.126564
v -2.057034 3.882259 -7.605443
v -0.000001 3.894970 -6.946323
v -0.000000 2.948971 -2.139238
v -2.501275 9.252510 -11.048867
v -12.066831 16.523109 -5.807091
v 0.000001 14.801926 9.477608
v -4.144022 14.801926 8.885087
vt 0.767161 0.127860
vt 0.768498 0.102670
vt 0.792744 0.131788
vt 0.776492 0.145513
vt 0.639238 0.140464
vt 0.646562 0.118595
vt 0.674423 0.143191
vt 0.672987 0.169741
vt 0.620720 0.067440
vt 0.631448 0.091993
vt 0.603257 0.093478
vt 0.603182 0.064727
vt 0.719243 0.044617
vt 0.722188 0.006733
vt 0.753479 0.012672
vt 0.733363 0.056207
vt 0.756984 0.076139
vt 0.787615 0.026164
vt 0.727342 0.154669
vt 0.750640 0.146913
vt 0.754360 0.154247
vt 0.729083 0.163531
vt 0.786961 0.087471
vt 0.817605 0.045772
vt 0.699865 0.146722
vt 0.700249 0.151625
vt 0.674192 0.138084
vt 0.725552 0.148951
vt 0.648865 0.113320
vt 0.636292 0.091153
vt 0.622718 0.063970
vt 0.603184 0.059882
vt 0.710714 0.047270
vt 0.726840 0.061145
vt 0.696506 0.006217
vt 0.749518 0.080067
vt 0.746937 0.139882
vt 0.758532 0.122178
vt 0.758702 0.101834
vt 0.722333 0.135757
vt 0.742060 0.128303
vt 0.720342 0.122828
vt 0.737114 0.119841
vt 0.748717 0.108810
vt 0.735161 0.100044
vt 0.723777 0.073679
vt 0.648664 0.096967
vt 0.672830 0.123204
vt 0.650461 0.078279
vt 0.672718 0.108823
vt 0.698047 0.118316
vt 0.698355 0.132951
vt 0.700315 0.077715
vt 0.676446 0.064572
vt 0.699161 0.051207
vt 0.651967 0.044363
vt 0.669392 0.027922
vt 0.609519 0.010103
vt 0.612526 0.014899
vt 0.629627 0.042396
vt 0.620416 0.055559
vt 0.603054 0.050071
vt 0.602764 0.008889
vt 0.621983 0.107022
vt 0.700267 0.163202
vt 0.679892 0.165612
vt 0.837461 0.064653
vt 0.811239 0.094591
vt 0.663481 0.170189
vn -0.7806 -0.4814 0.3986
vn -0.7192 -0.4581 0.5223
vn -0.5178 0.0602 0.8534
vn -0.7600 0.0742 0.6457
vn -0.4142 -0.1920 -0.8897
vn -0.4902 -0.3619 -0.7929
vn -0.7128 -0.4781 -0.5131
vn -0.6171 -0.1201 -0.7777
vn -0.3256 -0.7404 -0.5880
vn -0.3424 -0.4863 -0.8039
vn -0.1076 -0.5167 -0.8494
vn -0.1204 -0.8813 -0.4570
vn -0.4043 -0.9123 0.0660
vn -0.0000 -0.9988 0.0496
vn -0.0000 -0.5145 0.8575
vn -0.6767 -0.6274 0.3853
vn -0.6582 -0.5046 0.5587
vn -0.0000 -0.2801 0.9600
vn -0.7723 -0.6348 -0.0247
vn -0.7952 -0.5822 0.1695
vn -0.9454 0.0215 0.3253
vn -0.9992 -0.0036 -0.0387
vn -0.2940 -0.0646 0.9536
vn -0.0000 -0.0680 0.9977
vn -0.7537 -0.6484 -0.1074
vn -0.7894 -0.5745 -0.2165
vn -0.7726 -0.5153 -0.3710
vn -0.6283 -0.7766 0.0463
vn -0.5301 -0.3223 -0.7843
vn -0.2121 -0.3770 -0.9016
vn -0.0731 -0.7064 -0.7040
vn 0.0165 -0.9537 -0.3004
vn -0.0584 -0.7567 0.6512
vn -0.5986 -0.6184 0.5092
vn -0.0000 -0.9929 0.1192
vn -0.8480 -0.4805 0.2238
vn -0.6209 -0.7812 0.0649
vn -0.7195 -0.6921 0.0572
vn -0.7776 -0.5996 0.1891
vn -0.9967 -0.0113 0.0803
vn -0.9108 -0.0915 0.4025
vn -0.9954 0.0526 0.0805
vn -0.8874 -0.0268 0.4602
vn -0.7875 -0.1477 0.5984
vn -0.6460 -0.0397 0.7623
vn -0.2743 -0.1568 0.9488
vn -0.2116 -0.1047 -0.9717
vn -0.6238 0.0256 -0.7812
vn 0.0489 -0.2256 -0.9730
vn -0.4605 0.0162 -0.8875
vn -0.9218 0.0648 -0.3823
vn -0.9387 0.0369 -0.3427
vn 0.0100 -0.0661 0.9978
vn 0.5309 -0.0226 0.8472
vn 0.3313 -0.1248 0.9352
vn 0.8888 -0.0667 0.4535
vn 0.7790 -0.3603 0.5132
vn 0.7718 -0.6356 0.0168
vn 0.9977 -0.0171 -0.0657
vn 0.7777 -0.2432 -0.5796
vn 0.3406 -0.5862 -0.7351
vn 0.1067 -0.9437 -0.3132
vn 0.1698 -0.9807 0.0969
vn -0.2400 -0.3016 -0.9227
vn -0.9234 -0.0495 -0.3807
vn -0.8083 -0.0628 -0.5854
vn -0.0537 0.1069 0.9928
vn -0.2274 0.0143 0.9737
vn -0.5408 -0.2183 -0.8123
usemtl Material.005
s 1
f 1/1/1 2/2/2 3/3/3
f 3/3/3 4/4/4 1/1/1
f 5/5/5 6/6/6 7/7/7
f 7/7/7 8/8/8 5/5/5
f 9/9/9 10/10/10 11/11/11
f 11/11/11 12/12/12 9/9/9
f 13/13/13 14/14/14 15/15/15
f 15/15/15 16/16/16 13/13/13
f 17/17/17 16/16/16 15/15/15
f 15/15/15 18/18/18 17/17/17
f 20/19/19 21/20/20 22/21/21
f 22/21/21 23/22/22 20/19/19
f 25/23/23 17/17/17 18/18/18
f 18/18/18 26/24/24 25/23/23
f 27/25/25 28/26/26 7/7/7
f 7/7/7 29/27/27 27/25/25
f 30/28/28 20/19/19 28/26/26
f 28/26/26 27/25/25 30/28/28
f 31/29/29 6/6/6 10/10/10
f 10/10/10 32/30/30 31/29/29
f 33/31/31 9/9/9 12/12/12
f 12/12/12 34/32/32 33/31/31
f 32/30/30 10/10/10 9/9/9
f 9/9/9 33/31/31 32/30/30
f 35/33/33 13/13/13 16/16/16
f 16/16/16 36/34/34 35/33/33
f 37/35/35 14/14/14 13/13/13
f 13/13/13 35/33/33 37/35/35
f 36/34/34 16/16/16 17/17/17
f 17/17/17 38/36/36 36/34/34
f 39/37/37 21/20/20 20/19/19
f 20/19/19 30/28/28 39/37/37
f 40/38/38 1/1/1 21/20/20
f 21/20/20 39/37/37 40/38/38
f 41/39/39 2/2/2 1/1/1
f 1/1/1 40/38/38 41/39/39
f 38/36/36 17/17/17 2/2/2
f 2/2/2 41/39/39 38/36/36
f 29/27/27 7/7/7 6/6/6
f 6/6/6 31/29/29 29/27/27
f 30/28/28 42/40/40 43/41/41
f 43/41/41 39/37/37 30/28/28
f 44/42/42 45/43/43 43/41/41
f 43/41/41 42/40/40 44/42/42
f 39/37/37 43/41/41 46/44/44
f 46/44/44 40/38/38 39/37/37
f 45/43/43 47/45/45 46/44/44
f 46/44/44 43/41/41 45/43/43
f 48/46/46 38/36/36 46/44/44
f 46/44/44 47/45/45 48/46/46
f 31/29/29 49/47/47 50/48/48
f 50/48/48 29/27/27 31/29/29
f 51/49/49 52/50/50 50/48/48
f 50/48/48 49/47/47 51/49/49
f 53/51/51 54/52/52 50/48/48
f 50/48/48 52/50/50 53/51/51
f 27/25/25 29/27/27 50/48/48
f 50/48/48 54/52/52 27/25/25
f 27/25/25 54/52/52 42/40/40
f 42/40/40 30/28/28 27/25/25
f 53/51/51 44/42/42 42/40/40
f 42/40/40 54/52/52 53/51/51
f 55/53/53 56/54/54 57/55/55
f 57/55/55 48/46/46 55/53/53
f 58/56/56 59/57/57 57/55/55
f 57/55/55 56/54/54 58/56/56
f 48/46/46 57/55/55 35/33/33
f 35/33/33 36/34/34 48/46/46
f 37/35/35 35/33/33 57/55/55
f 57/55/55 59/57/57 37/35/35
f 60/58/58 59/57/57 58/56/56
f 58/56/56 61/59/59 60/58/58
f 62/60/60 63/61/61 60/58/58
f 60/58/58 61/59/59 62/60/60
f 60/58/58 63/61/61 64/62/62
f 64/62/62 65/63/63 60/58/58
f 63/61/61 33/31/31 34/32/32
f 34/32/32 64/62/62 63/61/61
f 51/49/49 49/47/47 32/30/30
f 32/30/30 33/31/31 51/49/49
f 60/58/58 65/63/63 37/35/35
f 37/35/35 59/57/57 60/58/58
f 66/64/64 10/10/10 6/6/6
f 6/6/6 5/5/5 66/64/64
f 28/26/26 67/65/65 24/66/66
f 24/66/66 7/7/7 28/26/26
f 67/65/65 28/26/26 20/19/19
f 20/19/19 23/22/22 67/65/65
f 21/20/20 1/1/1 4/4/4
f 4/4/4 22/21/21 21/20/20
f 25/23/23 26/24/24 68/67/67
f 68/67/67 69/68/68 25/23/23
f 7/7/7 24/66/66 8/8/8
f 5/5/5 8/8/8 19/69/69
f 17/17/17 25/23/23 2/2/2
f 41/39/39 46/44/44 38/36/36
f 55/53/53 48/46/46 47/45/45
f 48/46/46 36/34/34 38/36/36
f 31/29/29 32/30/30 49/47/47
f 51/49/49 33/31/31 63/61/61
f 51/49/49 63/61/61 62/60/60
f 46/44/44 41/39/39 40/38/38
f 2/2/2 25/23/23 3/3/3
f 25/23/23 69/68/68 3/3/3
